<mxfile host="Electron" modified="2023-12-06T15:21:31.332Z" agent="Mozilla/5.0 (X11; Linux x86_64) AppleWebKit/537.36 (KHTML, like Gecko) draw.io/22.1.2 Chrome/114.0.5735.289 Electron/25.9.4 Safari/537.36" etag="6JwNSZ-NKePwECgYTqDk" version="22.1.2" type="device">
  <diagram name="Page-1" id="6Bd57FOOTM8a8ig_WZmM">
    <mxGraphModel dx="1106" dy="823" grid="1" gridSize="10" guides="1" tooltips="1" connect="1" arrows="1" fold="1" page="1" pageScale="1" pageWidth="827" pageHeight="1169" math="0" shadow="0">
      <root>
        <mxCell id="0" />
        <mxCell id="1" parent="0" />
        <mxCell id="ochYMLCiZ2ASAATPkUc0-5" style="edgeStyle=orthogonalEdgeStyle;rounded=0;orthogonalLoop=1;jettySize=auto;html=1;entryX=0.5;entryY=0;entryDx=0;entryDy=0;" edge="1" parent="1" source="ochYMLCiZ2ASAATPkUc0-1" target="ochYMLCiZ2ASAATPkUc0-4">
          <mxGeometry relative="1" as="geometry" />
        </mxCell>
        <mxCell id="ochYMLCiZ2ASAATPkUc0-1" value="start" style="ellipse;whiteSpace=wrap;html=1;" vertex="1" parent="1">
          <mxGeometry x="350" y="30" width="110" height="50" as="geometry" />
        </mxCell>
        <mxCell id="ochYMLCiZ2ASAATPkUc0-2" style="edgeStyle=orthogonalEdgeStyle;rounded=0;orthogonalLoop=1;jettySize=auto;html=1;exitX=0.5;exitY=1;exitDx=0;exitDy=0;" edge="1" parent="1" source="ochYMLCiZ2ASAATPkUc0-1" target="ochYMLCiZ2ASAATPkUc0-1">
          <mxGeometry relative="1" as="geometry" />
        </mxCell>
        <mxCell id="ochYMLCiZ2ASAATPkUc0-4" value="" style="rhombus;whiteSpace=wrap;html=1;" vertex="1" parent="1">
          <mxGeometry x="365" y="120" width="80" height="80" as="geometry" />
        </mxCell>
      </root>
    </mxGraphModel>
  </diagram>
</mxfile>
